<svg width="24" height="22" viewBox="0 0 24 22" fill="none" xmlns="http://www.w3.org/2000/svg">
<rect width="24" height="22" fill="#F5F5F5"/>
<g id="Products" clip-path="url(#clip0_1063_1345)">
<rect width="360" height="694" transform="translate(-311 -41)" fill="white"/>
<g id="Rectangle 2" filter="url(#filter0_d_1063_1345)">
<rect x="-311" y="-17" width="360" height="56" fill="white"/>
</g>
<g id="icn / search">
<path id="Vector" d="M25.5313 21.719L31.7771 28.8126L31.7771 28.8126C32.0675 29.1422 32.5584 29.1566 32.8653 28.8425L32.8654 28.8423C33.1671 28.5324 33.1794 28.0161 32.8924 27.6903C32.8924 27.6903 32.8924 27.6903 32.8924 27.6903L26.5987 20.5423C26.6985 20.4131 26.7962 20.2804 26.8903 20.1434C28.5006 17.8461 29.1824 15.0079 28.8186 12.1549L28.8186 12.1547C28.4506 9.301 27.0786 6.77112 24.9448 5.03183C22.8153 3.29228 20.1806 2.55403 17.5302 2.94751L17.5301 2.94754C14.8798 3.34555 12.5347 4.82977 10.9241 7.13128C9.58969 9.03521 8.89215 11.2947 8.90007 13.6727L25.5313 21.719ZM25.5313 21.719L25.4941 21.7585L25.49 21.7628L25.4899 21.7627C24.4616 22.732 23.2563 23.4655 21.9313 23.917L21.9311 23.9171C20.9407 24.2526 19.9196 24.4228 18.9013 24.4228C17.9219 24.4228 16.9468 24.2694 15.9978 23.9585L15.9976 23.9584C15.6188 23.8333 15.4145 23.4065 15.5263 23.0122L25.5313 21.719ZM21.4981 22.4684L21.4982 22.4684C23.1984 21.8894 24.671 20.7669 25.7495 19.2251L25.7495 19.225C27.1332 17.2493 27.7203 14.8093 27.4042 12.3566L27.4042 12.3566C27.0885 9.89902 25.9075 7.72908 24.0775 6.23675L24.0774 6.23673C22.2487 4.74469 19.9932 4.11344 17.7268 4.45326C15.457 4.79364 13.448 6.0655 12.0645 8.04152L12.0645 8.04155C10.9215 9.67278 10.3199 11.6167 10.3272 13.664C10.3345 15.6452 10.9405 17.6066 12.0307 19.1803L12.0311 19.181C12.2603 19.5178 12.1979 19.9909 11.8857 20.2424L11.8851 20.2429C11.5648 20.4968 11.1152 20.4232 10.8817 20.0856C9.61272 18.2516 8.90751 15.9725 8.90007 13.6727L21.4981 22.4684ZM21.4981 22.4684C19.8356 23.036 18.0799 23.0478 16.4171 22.5055M21.4981 22.4684L16.4171 22.5055M15.6842 18.2651L15.6843 18.2652C16.487 18.9212 17.4385 19.3149 18.4332 19.4116L18.4332 19.4116C18.8332 19.4506 19.113 19.8245 19.0785 20.2371M15.6842 18.2651L18.9789 20.2288M15.6842 18.2651C14.9525 17.6692 14.3734 16.8793 14.0069 15.9805C13.8543 15.5955 13.4296 15.413 13.0655 15.5867C12.7007 15.7552 12.5449 16.2078 12.6996 16.5843C13.1623 17.7228 13.8943 18.7208 14.8206 19.474C15.8342 20.3009 17.0374 20.8009 18.2985 20.9264M15.6842 18.2651L18.3131 20.8273M19.0785 20.2371L18.9789 20.2288M19.0785 20.2371C19.0785 20.237 19.0785 20.2368 19.0786 20.2366L18.9789 20.2288M19.0785 20.2371C19.0479 20.6273 18.7437 20.9313 18.3704 20.9313H18.3678C18.3516 20.9314 18.3257 20.9314 18.2985 20.9264M18.9789 20.2288C18.9521 20.5729 18.6862 20.8313 18.3704 20.8313C18.3514 20.8313 18.3321 20.8313 18.3131 20.8273M18.2985 20.9264C18.3001 20.9265 18.3017 20.9267 18.3033 20.9268L18.3131 20.8273M18.2985 20.9264C18.2964 20.926 18.2944 20.9256 18.2923 20.9251L18.3131 20.8273M16.4171 22.5055C16.0347 22.3792 15.6388 22.6147 15.5263 23.0121L16.4171 22.5055Z" fill="white" stroke="white" stroke-width="0.2"/>
</g>
<g id="Group">
<path id="Vector_2" d="M11.2223 19.2341C11.2223 18.6871 11.0601 18.1523 10.7562 17.6975C10.4523 17.2426 10.0203 16.8881 9.51489 16.6788C9.00949 16.4694 8.45336 16.4147 7.91684 16.5214C7.38031 16.6281 6.88748 16.8915 6.50066 17.2783C6.11385 17.6652 5.85042 18.158 5.7437 18.6945C5.63698 19.231 5.69175 19.7872 5.90109 20.2926C6.11044 20.798 6.46495 21.2299 6.91979 21.5339C7.37464 21.8378 7.90939 22 8.45643 22C9.18999 22 9.8935 21.7086 10.4122 21.1899C10.9309 20.6712 11.2223 19.9677 11.2223 19.2341ZM6.96222 19.2341C6.96222 18.9386 7.04986 18.6497 7.21404 18.404C7.37823 18.1583 7.61159 17.9667 7.88462 17.8536C8.15765 17.7405 8.45809 17.711 8.74794 17.7686C9.03779 17.8263 9.30403 17.9686 9.513 18.1775C9.72197 18.3865 9.86428 18.6528 9.92193 18.9426C9.97959 19.2325 9.95 19.5329 9.8369 19.8059C9.72381 20.079 9.53229 20.3123 9.28657 20.4765C9.04085 20.6407 8.75196 20.7283 8.45643 20.7283C8.06014 20.7283 7.68009 20.5709 7.39987 20.2907C7.11965 20.0105 6.96222 19.6304 6.96222 19.2341Z" fill="#35495E"/>
<path id="Vector_3" d="M21.5231 19.2341C21.5231 18.6871 21.3609 18.1523 21.057 17.6975C20.753 17.2426 20.3211 16.8881 19.8157 16.6788C19.3103 16.4694 18.7541 16.4147 18.2176 16.5214C17.6811 16.6281 17.1883 16.8915 16.8014 17.2783C16.4146 17.6652 16.1512 18.158 16.0445 18.6945C15.9378 19.231 15.9925 19.7872 16.2019 20.2926C16.4112 20.798 16.7657 21.2299 17.2206 21.5339C17.6754 21.8378 18.2102 22 18.7572 22C19.4908 22 20.1943 21.7086 20.713 21.1899C21.2317 20.6712 21.5231 19.9677 21.5231 19.2341ZM17.263 19.2341C17.263 18.9386 17.3506 18.6497 17.5148 18.404C17.679 18.1583 17.9124 17.9667 18.1854 17.8536C18.4584 17.7405 18.7589 17.711 19.0487 17.7686C19.3386 17.8263 19.6048 17.9686 19.8138 18.1775C20.0228 18.3865 20.1651 18.6528 20.2227 18.9426C20.2804 19.2325 20.2508 19.5329 20.1377 19.8059C20.0246 20.079 19.8331 20.3123 19.5874 20.4765C19.3416 20.6407 19.0527 20.7283 18.7572 20.7283C18.3609 20.7283 17.9809 20.5709 17.7006 20.2907C17.4204 20.0105 17.263 19.6304 17.263 19.2341Z" fill="#35495E"/>
<path id="Vector_4" d="M4.26009 0.000129354H0.635834C0.467201 0.000129359 0.305473 0.067119 0.186231 0.186361C0.0669893 0.305603 0 0.46733 0 0.635964C0 0.804598 0.0669893 0.966325 0.186231 1.08557C0.305473 1.20481 0.467201 1.2718 0.635834 1.2718H3.75142L6.19939 13.4798C6.31059 14.0549 6.61931 14.573 7.07214 14.9446C7.52496 15.3161 8.0934 15.5177 8.67914 15.5145H19.6791C20.2559 15.5207 20.8173 15.3281 21.2689 14.9692C21.7205 14.6102 22.0347 14.1068 22.1588 13.5434L23.971 5.75443C23.9898 5.6605 23.9882 5.56361 23.9662 5.47036C23.9443 5.3771 23.9025 5.28966 23.8438 5.21397C23.7082 5.07854 23.5266 4.9991 23.3351 4.99143H5.78609L4.89593 0.508797C4.8662 0.363016 4.78629 0.232274 4.67011 0.139331C4.55393 0.0463883 4.40884 -0.00287047 4.26009 0.000129354ZM22.5403 6.2631L20.919 13.2573C20.8542 13.5376 20.6964 13.7876 20.4712 13.9666C20.246 14.1456 19.9667 14.243 19.6791 14.2428H8.67914C8.38864 14.2357 8.10885 14.1317 7.88421 13.9474C7.65957 13.7631 7.50296 13.509 7.43926 13.2255L6.04043 6.2631H22.5403Z" fill="#35495E"/>
</g>
<circle id="Ellipse 66" cx="25" cy="-2" r="7.5" fill="#FFA347" stroke="white"/>
<path id="5" d="M26.184 -4.152H23.376V-2.328C23.4987 -2.49867 23.68 -2.63733 23.92 -2.744C24.16 -2.856 24.4187 -2.912 24.696 -2.912C25.1387 -2.912 25.4987 -2.81867 25.776 -2.632C26.0533 -2.45067 26.2507 -2.21333 26.368 -1.92C26.4907 -1.632 26.552 -1.32533 26.552 -1C26.552 -0.616 26.48 -0.272 26.336 0.0319999C26.192 0.336 25.9707 0.576 25.672 0.752C25.3787 0.928 25.0133 1.016 24.576 1.016C24.016 1.016 23.5627 0.872 23.216 0.584C22.8693 0.296 22.6587 -0.0880001 22.584 -0.568H23.296C23.3653 -0.264 23.512 -0.0266668 23.736 0.144C23.96 0.314667 24.2427 0.4 24.584 0.4C25.0053 0.4 25.3227 0.274667 25.536 0.0239999C25.7493 -0.232 25.856 -0.568 25.856 -0.984C25.856 -1.4 25.7493 -1.72 25.536 -1.944C25.3227 -2.17333 25.008 -2.288 24.592 -2.288C24.3093 -2.288 24.0613 -2.21867 23.848 -2.08C23.64 -1.94667 23.488 -1.76267 23.392 -1.528H22.704V-4.792H26.184V-4.152Z" fill="white"/>
</g>
<defs>
<filter id="filter0_d_1063_1345" x="-312" y="-18" width="362" height="58" filterUnits="userSpaceOnUse" color-interpolation-filters="sRGB">
<feFlood flood-opacity="0" result="BackgroundImageFix"/>
<feColorMatrix in="SourceAlpha" type="matrix" values="0 0 0 0 0 0 0 0 0 0 0 0 0 0 0 0 0 0 127 0" result="hardAlpha"/>
<feOffset/>
<feGaussianBlur stdDeviation="0.5"/>
<feColorMatrix type="matrix" values="0 0 0 0 0.693827 0 0 0 0 0.807407 0 0 0 0 0.906173 0 0 0 1 0"/>
<feBlend mode="normal" in2="BackgroundImageFix" result="effect1_dropShadow_1063_1345"/>
<feBlend mode="normal" in="SourceGraphic" in2="effect1_dropShadow_1063_1345" result="shape"/>
</filter>
<clipPath id="clip0_1063_1345">
<rect width="360" height="694" fill="white" transform="translate(-311 -41)"/>
</clipPath>
</defs>
</svg>
