<svg width="33" height="10" viewBox="0 0 33 10" fill="none" xmlns="http://www.w3.org/2000/svg">
<rect width="33" height="10" fill="#F5F5F5"/>
<g id="Products" clip-path="url(#clip0_1063_1345)">
<rect width="360" height="694" transform="translate(-30 -511)" fill="white"/>
<circle id="Ellipse 25" cx="16" cy="5" r="30" fill="#F1F3F4"/>
<g id="Group">
<path id="Vector" d="M23.1117 2.32578C22.4636 1.3139 21.3352 1.00747 20.503 0.92868C18.8783 0.774738 17.2764 1.34912 16.6654 1.99357C16.6625 1.99647 16.6585 1.99756 16.6552 2.00047C16.6523 2.00337 16.6516 2.007 16.6487 2.00991C16.6294 2.02806 16.6055 2.03605 16.5844 2.05021C16.5586 2.06763 16.5347 2.08797 16.5064 2.09922C16.4791 2.11011 16.4512 2.11229 16.4229 2.11774C16.3942 2.12355 16.3666 2.13226 16.3375 2.1319C16.3092 2.1319 16.2823 2.12355 16.2544 2.1181C16.225 2.11265 16.1959 2.11011 16.168 2.09886C16.1426 2.08869 16.1215 2.07018 16.0979 2.05493C16.0739 2.03968 16.0478 2.03024 16.0264 2.01027C16.0227 2.007 16.0217 2.00264 16.0184 1.99901C16.0158 1.99647 16.0122 1.99538 16.0097 1.99284C15.3983 1.34839 13.7957 0.773286 12.172 0.928317C11.3399 1.0071 10.2122 1.3139 9.56408 2.32541C7.99271 4.77868 3.23975 6.16525 1.33472 6.63506C2.24203 7.42765 4.43643 8.86178 8.60049 9.07672C11.0832 9.20524 13.0056 8.66645 14.317 7.47557C15.0352 6.8235 15.5577 5.97646 15.8804 4.96385C15.8949 4.78377 16.0148 4.6222 16.1981 4.56665C16.2279 4.55757 16.2573 4.56084 16.2871 4.55794C16.2951 4.55685 16.303 4.55612 16.3114 4.55576C16.3546 4.55394 16.3956 4.55757 16.4366 4.5681C16.4504 4.57101 16.4639 4.56774 16.4773 4.5721C16.4915 4.57645 16.5016 4.58698 16.5151 4.59243C16.5325 4.60042 16.5481 4.60877 16.5644 4.61893C16.6952 4.693 16.783 4.8208 16.795 4.96821C17.4442 7.0054 19.2356 9.32651 24.076 9.07672C28.2383 8.86142 30.433 7.42837 31.3414 6.63506C29.4353 6.16525 24.6823 4.77868 23.1117 2.32578Z" fill="#81939C"/>
<path id="Vector_2" d="M32.6441 6.20736C32.5879 6.06504 32.4633 5.96047 32.3134 5.92998C32.2466 5.91691 25.6075 4.54559 23.8734 1.83817C23.2145 0.809225 22.0479 0.16659 20.5884 0.0282598C19.0482 -0.118784 17.32 0.324888 16.3375 1.08008C15.354 0.324162 13.6247 -0.11951 12.0863 0.0282598C10.6275 0.166953 9.46134 0.809588 8.80237 1.83817C7.06798 4.54595 0.429225 5.91691 0.36242 5.92998C0.212472 5.96047 0.0875757 6.06468 0.0316628 6.20736C-0.0246132 6.34969 -0.00500748 6.51089 0.0835818 6.63579C0.171445 6.75887 2.3034 9.65726 8.55366 9.98039C8.80854 9.99383 9.05797 10 9.30231 10C11.6793 10 13.568 9.3777 14.9245 8.14543C15.5079 7.61571 15.9792 6.97889 16.3386 6.24875C17.2075 7.9944 19.1303 9.99964 23.3804 9.99964C23.6204 9.99964 23.8676 9.99346 24.1229 9.98003C30.3728 9.6569 32.5051 6.7585 32.5929 6.63542C32.6808 6.51089 32.7004 6.34969 32.6441 6.20736ZM24.0753 9.07744C19.2348 9.32723 17.4435 7.00612 16.7943 4.96893C16.7823 4.82152 16.6944 4.69372 16.5637 4.61965C16.5478 4.60949 16.5318 4.60114 16.5144 4.59315C16.5009 4.5877 16.4908 4.57717 16.4766 4.57282C16.4628 4.56846 16.4494 4.57173 16.4359 4.56882C16.3949 4.55829 16.3539 4.55503 16.3107 4.55648C16.3023 4.55721 16.2947 4.55757 16.2863 4.55866C16.2566 4.56156 16.2272 4.55829 16.1974 4.56737C16.0137 4.62256 15.8939 4.78449 15.8797 4.96457C15.5573 5.97754 15.0345 6.82422 14.3163 7.47629C13.0053 8.66717 11.0828 9.20596 8.59977 9.07744C4.43571 8.86214 2.24131 7.42837 1.334 6.63579C3.23903 6.16597 7.99235 4.7794 9.56336 2.32613C10.2114 1.31462 11.3391 1.00782 12.1713 0.929038C13.7953 0.774007 15.3979 1.34911 16.009 1.99356C16.0115 1.99647 16.0151 1.99719 16.0177 1.99973C16.0209 2.003 16.022 2.00772 16.0257 2.01099C16.0471 2.03132 16.0732 2.0404 16.0972 2.05565C16.1208 2.0709 16.1418 2.08905 16.1673 2.09958C16.1952 2.11083 16.2243 2.11338 16.2537 2.11882C16.2816 2.12427 16.3085 2.13262 16.3368 2.13262C16.3659 2.13262 16.3934 2.1239 16.4221 2.11846C16.4505 2.11301 16.4784 2.11083 16.5056 2.09994C16.534 2.08869 16.5579 2.06835 16.5837 2.05093C16.6048 2.03677 16.6287 2.02878 16.648 2.01063C16.6509 2.00772 16.6516 2.00409 16.6545 2.00119C16.6574 1.99828 16.6614 1.99719 16.6647 1.99429C17.2757 1.34984 18.8776 0.775459 20.5023 0.929401C21.3345 1.00819 22.4629 1.31462 23.111 2.3265C24.682 4.77941 29.4346 6.16597 31.34 6.63615C30.4323 7.4291 28.2375 8.86214 24.0753 9.07744Z" fill="#81939C"/>
</g>
</g>
<defs>
<clipPath id="clip0_1063_1345">
<rect width="360" height="694" fill="white" transform="translate(-30 -511)"/>
</clipPath>
</defs>
</svg>
